<svg role="img" aria-label="DIVD Academy" xmlns="http://www.w3.org/2000/svg" xmlns:xlink="http://www.w3.org/1999/xlink" version="1.1" width="570.4" height="160.65" viewBox="0 0 570.4 160.65">
<defs>
<path id="font_1_1" d="M.099990848 .69499209C.085998538 .68099978 .07899475 .6579895 .07899475 .6269989V.101989749C.07899475 .07899475 .08099365 .05999756 .084991458 .04598999 .08898926 .0309906 .09799194 .019989014 .11099243 .011993408 .125 .0039978029 .14399719 0 .17098999 0H.3600006C.3929901 0 .42199708 .0019989014 .44898988 .005996704 .47499085 .010986328 .49899293 .017990113 .5219879 .027999878 .54499819 .038986207 .56599429 .051986696 .58499148 .069992069 .60899356 .09199524 .6289978 .117996219 .644989 .1459961 .6609955 .1749878 .6719971 .20698548 .6799927 .24198914 .68699648 .27799989 .69099429 .31698609 .69099429 .3600006 .69099429 .48999024 .6539917 .58699038 .57899478 .651001 .5509949 .6759949 .5189972 .69299319 .48298646 .70199587 .44799806 .71099856 .4059906 .71598818 .35699464 .71598818H.16799927C.13699341 .71598818 .11399841 .70899966 .099990848 .69499209M.31999208 .6009979C.3639984 .6009979 .4019928 .59599307 .43299867 .58699038 .46398927 .57699587 .4909973 .5549927 .5119934 .5189972 .5329895 .48399354 .5439911 .43099977 .5439911 .36099244 .5439911 .2599945 .519989 .18998719 .47099305 .14898682 .45999146 .13899231 .44799806 .13198853 .43299867 .1269989 .41799928 .12199402 .4039917 .117996219 .3909912 .116989139 .3769989 .115997318 .35798646 .114990238 .33399964 .114990238H.22399903V.6009979H.31999208Z"/>
<path id="font_1_2" d="M.10398865 .009994507C.117996219-.005004883 .1349945-.012008667 .1559906-.012008667 .17799378-.012008667 .19499207-.005004883 .20899964 .009994507 .22200012 .024993897 .22898865 .04699707 .22898865 .07598877V.6399994C.22898865 .66999819 .22200012 .69200137 .20899964 .70599368 .19499207 .72099307 .17799378 .7279968 .1559906 .7279968 .1349945 .7279968 .116989139 .72099307 .10398865 .70599368 .09098816 .69099429 .083999637 .6689911 .083999637 .6399994V.07598877C.083999637 .04699707 .09098816 .024993897 .10398865 .009994507Z"/>
<path id="font_1_3" d="M.15299988 .7049866C.14199829 .7200012 .125 .7279968 .099990848 .7279968 .07998657 .7279968 .06298828 .72099307 .049987794 .70799258 .036987306 .69400027 .02999878 .67900088 .02999878 .6619873 .02999878 .6559906 .0309906 .647995 .032989503 .6380005 .034988405 .6289978 .037994386 .6199951 .040985109 .6119995 .04399109 .60398867 .04699707 .59498599 .049987794 .58699038L.21998596 .12298584C.22599793 .10499573 .23298645 .08799744 .23899842 .07199097 .24499512 .056991579 .2519989 .041992189 .26098634 .02999878 .2689972 .016998291 .27999879 .0069885256 .29299928-.0010070801 .30699159-.008010864 .32299806-.012008667 .34298707-.012008667 .3619995-.012008667 .3789978-.008010864 .3919983 0 .4059906 .0079956059 .4169922 .017990113 .4249878 .02999878 .43299867 .041992189 .43998719 .055999757 .44599916 .07199097 .45199586 .08799744 .45899964 .10499573 .46499635 .12298584L.6380005 .59098818C.6409912 .598999 .6439972 .60798647 .6469879 .61499026 .6499939 .6230011 .6519928 .6319885 .6539917 .6399994 .6559906 .647995 .6569977 .6559906 .6569977 .6629944 .6569977 .6729889 .6539917 .6839905 .647995 .69400027 .6419983 .70399478 .6339874 .71299746 .6230011 .71899417 .61299136 .72499087 .6009979 .7279968 .58898928 .7279968 .57199099 .7279968 .55799868 .723999 .548996 .71598818 .5389862 .70799258 .5319977 .69898989 .5279999 .68899539 .522995 .67900088 .5169983 .6619873 .5089874 .6359863L.34599305 .15299988 .18399048 .6329956C.17298889 .66600039 .16299439 .6899872 .15299988 .7049866Z"/>
</defs>
<path transform="matrix(.1,0,0,-.1,0,160.65)" stroke-width="100" stroke-linecap="round" stroke-linejoin="round" fill="none" stroke="#FFD736" d="M2400.79 50H803.23C387.234 50 50 387.23 50 803.227V803.23C50 1219.23 387.234 1556.46 803.23 1556.46H2400.79C2816.78 1556.46 3154.02 1219.23 3154.02 803.23V803.227C3154.02 387.23 2816.78 50 2400.79 50Z"/>
<path transform="matrix(.1,0,0,-.1,0,160.65)" d="M3917.7 1116.92V1116.21 1116.92ZM3668.9 841.348C3695.55 843.953 3722.21 845.855 3748.86 847.055 3775.51 848.246 3802.17 849.074 3828.82 849.555 3839.76 885.965 3851.31 922.016 3863.45 957.715 3875.58 993.406 3887.84 1029.34 3900.21 1065.52 3901.4 1068.85 3902.53 1072.05 3903.6 1075.16 3904.67 1078.25 3905.8 1081.45 3906.99 1084.79 3897.47 1078.59 3888.25 1071.45 3879.33 1063.38 3870.41 1055.27 3862.73 1048.25 3856.31 1042.3 3822.27 1011.62 3789.79 979.363 3758.86 945.574 3727.92 911.773 3697.93 877.035 3668.9 841.348ZM3457.94 588.262C3460.79 597.781 3464.36 607.176 3468.65 616.453 3472.93 625.734 3477.69 634.836 3482.93 643.766 3488.16 652.684 3493.69 661.438 3499.52 670.008 3505.35 678.566 3511 686.895 3516.48 694.984 3528.62 712.594 3540.87 729.965 3553.25 747.105 3565.62 764.234 3578.35 781.242 3591.44 798.145 3586.2 796.953 3579.24 795.344 3570.56 793.336 3561.87 791.305 3553.12 788.746 3544.32 785.656 3535.52 782.566 3527.37 779.055 3519.87 775.125 3512.38 771.195 3507.08 766.734 3503.99 761.734 3503.51 761.027 3503.03 759.715 3502.56 757.816 3502.32 757.336 3502.08 756.746 3501.84 756.023 3502.08 751.973 3501.43 749.125 3499.88 747.465 3498.33 745.797 3496.25 744.965 3493.63 744.965 3491.49 744.965 3489.29 745.434 3487.03 746.387 3484.77 747.336 3482.69 748.645 3480.78 750.316 3478.88 751.973 3477.27 753.887 3475.97 756.023 3474.65 758.164 3473.88 760.426 3473.64 762.816 3473.41 769.234 3474.59 774.945 3477.21 779.945 3479.83 784.945 3483.28 789.348 3487.57 793.156 3491.85 796.953 3496.79 800.297 3502.38 803.145 3507.97 806.008 3513.38 808.508 3518.62 810.645 3535.04 817.066 3551.82 822.246 3568.95 826.176 3586.09 830.094 3603.58 833.363 3621.43 835.984 3622.61 837.645 3623.86 839.195 3625.17 840.625 3626.48 842.055 3627.73 843.605 3628.92 845.266 3646.06 866.203 3663.37 887.145 3680.86 908.098 3698.35 929.035 3716.32 949.613 3734.76 969.844 3753.2 990.074 3772.18 1009.77 3791.7 1028.93 3811.21 1048.07 3831.44 1066.34 3852.38 1083.71 3856.9 1087.53 3862.02 1091.86 3867.73 1096.75 3873.44 1101.63 3879.45 1106.2 3885.76 1110.48 3892.06 1114.78 3898.61 1118.35 3905.39 1121.2 3912.17 1124.05 3918.77 1125.48 3925.2 1125.48 3931.15 1125.48 3935.61 1124.42 3938.59 1122.27 3941.56 1120.13 3943.52 1117.38 3944.48 1114.05 3945.42 1110.73 3945.6 1106.91 3945.01 1102.64 3944.41 1098.36 3943.52 1094.07 3942.33 1089.79 3941.14 1085.51 3939.77 1081.45 3938.23 1077.64 3936.68 1073.84 3935.43 1070.5 3934.48 1067.66 3921.63 1031.47 3909.19 995.363 3897.18 959.316 3885.16 923.266 3873.44 886.797 3862.02 849.906 3872.01 849.664 3882.19 849.496 3892.54 849.375 3902.89 849.258 3913.06 848.246 3923.06 846.336 3925.2 845.855 3927.58 844.555 3930.2 842.414 3932.81 840.277 3935.07 837.824 3936.98 835.098 3938.88 832.355 3939.95 829.566 3940.19 826.703 3940.43 823.855 3939.24 821.465 3936.62 819.566 3932.57 816.715 3928.59 813.914 3924.66 811.176 3920.74 808.434 3916.75 805.766 3912.71 803.145 3910.56 801.715 3908.42 801.008 3906.28 801.008 3903.9 801.008 3901.52 801.656 3899.14 802.965 3896.76 804.273 3894.62 805.887 3892.72 807.785 3890.81 809.684 3889.26 811.777 3888.08 814.035 3886.88 816.297 3886.29 818.496 3886.29 820.637H3857.38 3853.09C3842.38 786.363 3832.62 751.867 3823.82 717.113 3815.02 682.375 3807.64 647.277 3801.69 611.816 3800.02 601.59 3798.42 591.18 3796.87 580.59 3795.32 570 3794.13 559.352 3793.3 548.641 3792.47 537.93 3792.29 527.281 3792.77 516.691 3793.24 506.102 3794.55 495.691 3796.69 485.461 3797.41 482.129 3796.75 479.449 3794.73 477.43 3792.71 475.41 3790.27 474.391 3787.41 474.391 3786.22 474.391 3785.27 474.512 3784.56 474.75 3780.51 475.23 3777.06 477.25 3774.21 480.82 3771.35 484.391 3769.44 488.199 3768.49 492.238 3766.11 502.949 3764.68 513.961 3764.21 525.262 3763.73 536.559 3763.85 547.809 3764.57 558.988 3765.28 570.18 3766.47 581.359 3768.14 592.551 3769.8 603.73 3771.58 614.676 3773.49 625.387 3778.96 658.453 3785.68 691.113 3793.66 723.363 3801.63 755.605 3810.38 787.914 3819.9 820.285 3789.67 819.566 3759.69 818.074 3729.94 815.816 3700.19 813.555 3670.33 810.285 3640.35 806.008 3621.78 783.637 3603.4 760.074 3585.19 735.324 3566.99 710.574 3549.91 685.945 3533.97 661.438 3529.21 654.297 3524.39 646.977 3519.51 639.488 3514.63 631.984 3509.99 624.379 3505.59 616.637 3501.19 608.906 3497.14 600.988 3493.46 592.898 3489.76 584.809 3486.73 576.602 3484.35 568.27 3483.4 564.699 3481.26 562.922 3477.93 562.922 3475.79 562.922 3473.41 563.75 3470.79 565.422 3468.17 567.078 3465.79 569.148 3463.65 571.66 3461.51 574.16 3459.84 576.898 3458.65 579.871 3457.46 582.852 3457.22 585.648 3457.94 588.262" fill="#FFD736"/>
<path transform="matrix(.1,0,0,-.1,0,160.65)" d="M3881.23 720.434C3885.39 732.922 3891.4 745.184 3899.28 757.203 3907.15 769.242 3916.44 779.941 3927.14 789.293 3937.83 798.656 3949.56 806.164 3962.35 811.805 3975.12 817.449 3988.48 820.27 4002.45 820.27 4011.07 820.27 4018.65 818.41 4025.19 814.703 4031.72 810.98 4037.06 804.527 4041.23 795.313 4045.09 786.695 4046.88 777.047 4046.58 766.344 4046.28 755.645 4043.46 746.293 4038.11 738.266 4035.44 734.406 4031.87 732.473 4027.41 732.473 4024.14 732.473 4020.79 733.508 4017.39 735.594 4013.96 737.664 4010.99 740.277 4008.47 743.398 4005.95 746.52 4004.31 749.777 4003.58 753.199 4002.83 756.605 4003.35 759.801 4005.12 762.789 4007.51 766.645 4008.7 770.203 4008.7 773.473 4008.7 776.746 4008.85 780.004 4009.15 783.289 4007.64 782.988 4006.25 782.766 4004.91 782.613 4003.58 782.465 4002.15 782.238 4000.67 781.938 3998.29 781.355 3995.92 780.68 3993.54 779.941 3991.17 779.191 3988.78 778.23 3986.41 777.047 3975.12 772.59 3964.87 766.422 3955.66 758.539 3946.44 750.676 3938.43 741.688 3931.6 731.586 3927.72 725.926 3923.57 718.063 3919.11 707.961 3914.65 697.863 3911.38 687.535 3909.31 676.984 3907.22 666.434 3907.07 656.406 3908.86 646.906 3910.64 637.391 3915.99 630.262 3924.9 625.508 3928.17 623.719 3931.73 622.461 3935.6 621.723 3939.46 620.973 3943.47 620.598 3947.64 620.598 3957.44 620.598 3968.14 622.086 3979.73 625.055 3991.32 628.027 4002.75 631.898 4014.04 636.656 4025.34 641.398 4036.25 646.684 4046.8 652.477 4057.35 658.27 4066.63 663.836 4074.66 669.18 4090.7 679.883 4105.92 691.77 4120.34 704.84 4134.75 717.914 4147.75 732.02 4159.34 747.18 4161.42 750.152 4163.49 751.637 4165.58 751.637 4167.36 751.637 4168.7 750.602 4169.59 748.516 4170.49 746.43 4171.07 743.758 4171.37 740.5 4171.67 737.23 4171.37 733.656 4170.49 729.801 4169.59 725.926 4168.25 722.219 4166.46 718.664 4162.01 710.332 4155.7 701.191 4147.52 691.242 4139.36 681.293 4129.92 671.266 4119.23 661.164 4108.53 651.066 4096.8 641.398 4084.02 632.199 4071.24 622.984 4058.01 614.805 4044.36 607.676 4030.68 600.551 4016.86 594.828 4002.9 590.52 3988.93 586.211 3975.27 584.051 3961.9 584.051 3951.5 584.051 3941.62 585.48 3932.26 588.301 3922.91 591.121 3914.05 595.941 3905.74 602.781 3896.82 609.91 3889.92 618.078 3885.01 627.293 3880.12 636.492 3876.85 646.383 3875.21 656.934 3873.57 667.469 3873.36 678.172 3874.55 689.023 3875.74 699.859 3877.96 710.332 3881.23 720.434" fill="#FFD736"/>
<path transform="matrix(.1,0,0,-.1,0,160.65)" d="M4177.85 637.543C4181.11 638.129 4184.31 639.254 4187.43 640.891 4190.55 642.512 4193.45 644.223 4196.12 646.008 4204.73 651.949 4212.69 658.629 4219.97 666.059 4227.25 673.488 4234.08 681.594 4240.47 690.355 4246.85 699.121 4252.79 708.188 4258.3 717.539 4263.79 726.902 4269.21 736.477 4274.57 746.293V749.852C4274.85 751.637 4275.15 754.082 4275.45 757.203 4275.75 760.328 4275.96 763.449 4276.13 766.57 4276.26 769.691 4276.13 772.59 4275.68 775.262 4275.23 777.934 4274.27 779.867 4272.78 781.055 4271.6 781.938 4269.81 782.391 4267.44 782.391 4260.9 782.391 4253.99 780.602 4246.71 777.047 4239.42 773.473 4232.36 769.168 4225.54 764.125 4218.71 759.066 4212.39 753.574 4206.6 747.629 4200.8 741.688 4195.97 736.477 4192.11 732.02 4184.08 722.52 4176.95 711.594 4170.73 699.273 4164.48 686.934 4161.06 674.371 4160.47 661.617 4160.17 655.656 4160.83 650.164 4162.47 645.121 4164.11 640.063 4168.34 637.543 4175.18 637.543H4177.85ZM4139.52 724.891C4144.28 734.406 4150.22 744.133 4157.35 754.082 4164.48 764.035 4172.42 773.25 4181.19 781.73 4189.95 790.195 4199.47 797.547 4209.72 803.789 4219.97 810.02 4230.59 814.043 4241.58 815.813 4243.37 816.414 4245.21 816.715 4247.15 816.715 4249.08 816.715 4250.95 816.715 4252.73 816.715 4261.65 816.715 4270.26 814.852 4278.58 811.145 4286.89 807.422 4293.73 801.703 4299.08 793.977 4299.38 793.676 4299.59 793.375 4299.75 793.09 4299.89 792.789 4300.11 792.488 4300.41 792.191 4301.31 793.676 4302.2 795.086 4303.08 796.438 4303.99 797.773 4304.87 799.168 4305.76 800.672 4309.33 806.313 4313.41 811.656 4318.02 816.715 4322.63 821.758 4327.74 824.293 4333.4 824.293 4338.74 824.293 4344.09 821.457 4349.45 815.813 4353 812.258 4355.24 808.309 4356.12 804 4357.03 799.695 4357.16 795.387 4356.57 791.078 4355.97 786.773 4354.94 782.391 4353.45 777.934 4351.97 773.473 4350.48 769.168 4349 765.008 4346.32 756.98 4343.05 748.078 4339.2 738.266 4335.32 728.465 4331.62 718.363 4328.04 707.961 4324.49 697.563 4321.59 687.387 4319.35 677.434 4317.13 667.469 4316.16 658.195 4316.46 649.578 4316.76 644.82 4317.72 640.664 4319.35 637.094 4320.99 633.535 4323.74 631.75 4327.61 631.75 4339.48 631.75 4352.34 635.531 4366.15 643.109 4379.97 650.691 4393.48 659.891 4406.72 670.742 4419.93 681.594 4432.19 693.18 4443.49 705.516 4454.78 717.84 4463.83 728.75 4470.67 738.266 4473.34 742.121 4476.31 744.059 4479.58 744.059 4483.44 744.059 4486.41 741.895 4488.5 737.605 4490.57 733.281 4490.12 728.465 4487.16 723.121 4483.59 716.277 4478.76 708.41 4472.68 699.496 4466.59 690.582 4459.59 681.441 4451.73 672.078 4443.85 662.727 4435.31 653.512 4426.09 644.445 4416.89 635.383 4407.38 627.293 4397.58 620.164 4387.78 613.035 4377.74 607.301 4367.49 602.988 4357.24 598.699 4347.36 596.539 4337.86 596.539 4324.19 596.539 4312 601.301 4301.31 610.797 4291.2 619.711 4284.97 630.473 4282.58 643.109 4280.21 655.734 4280.21 669.18 4282.58 683.453 4277.53 675.426 4271.52 666.734 4264.54 657.367 4257.55 648.02 4249.89 639.18 4241.58 630.848 4233.27 622.535 4224.35 615.629 4214.84 610.137 4205.33 604.629 4195.68 601.879 4185.87 601.879 4184.38 601.879 4182.82 601.879 4181.19 601.879 4179.55 601.879 4177.85 602.18 4176.07 602.781 4161.81 605.449 4150.96 611.398 4143.53 620.598 4136.12 629.813 4131.27 640.438 4129.05 652.477 4126.83 664.512 4126.75 677.059 4128.82 690.133 4130.91 703.203 4134.46 714.789 4139.52 724.891" fill="#FFD736"/>
<path transform="matrix(.1,0,0,-.1,0,160.65)" d="M4499.59 629.965C4506.42 629.965 4513.25 632.199 4520.09 636.656 4526.92 641.102 4533.6 646.906 4540.14 654.035 4546.67 661.164 4552.92 669.18 4558.86 678.094 4564.8 687.012 4570.3 695.926 4575.35 704.84 4580.4 713.758 4584.95 722.07 4588.95 729.801 4592.96 737.527 4596.01 743.906 4598.09 748.965 4597.49 751.938 4597.19 754.156 4597.19 755.645 4597.19 764.859 4596.59 772.516 4595.41 778.605 4594.22 784.688 4590.06 787.73 4582.93 787.73 4574.02 787.73 4565.61 784.91 4557.75 779.27 4549.87 773.625 4542.97 767.832 4537.02 761.887 4525.74 749.699 4516.37 735.816 4508.94 720.223 4501.51 704.613 4496.17 688.797 4492.9 672.754 4492.3 669.781 4491.64 665.91 4490.9 661.164 4490.15 656.406 4489.78 651.801 4489.78 647.344 4489.78 642.887 4490.45 639.027 4491.79 635.758 4493.12 632.484 4495.72 630.563 4499.59 629.965ZM4491.13 770.352C4495.57 776.895 4500.48 783.289 4505.84 789.52 4511.18 795.762 4516.97 801.328 4523.22 806.238 4529.44 811.145 4536.2 815.215 4543.49 818.5 4550.77 821.758 4558.56 823.691 4566.89 824.293 4578.76 824.293 4588.88 822.281 4597.19 818.273 4605.51 814.254 4612.8 807.047 4619.03 796.648 4627.64 817.148 4636.03 838.402 4644.21 860.387 4652.38 882.375 4660.33 904.512 4668.06 926.801 4673.71 947.586 4679.57 968.09 4685.67 988.305 4691.75 1008.51 4698.21 1028.86 4705.06 1049.36 4706.83 1055 4710.99 1057.82 4717.53 1057.82 4720.2 1057.82 4723.1 1057.09 4726.22 1055.6 4729.34 1054.1 4732.01 1052.11 4734.25 1049.59 4736.47 1047.05 4738.11 1044.02 4739.14 1040.45 4740.18 1036.89 4740.27 1032.87 4739.37 1028.41 4734.31 1007.02 4728.38 985.633 4721.54 964.23 4714.71 942.844 4707.58 921.441 4700.15 900.055 4694.51 879.254 4688.79 857.492 4683 834.754 4677.2 812.031 4671.84 788.992 4666.95 765.684 4662.04 742.348 4657.81 719.176 4654.24 696.152 4650.68 673.129 4648.3 650.766 4647.11 629.078 4646.51 615.105 4646.51 600.77 4647.11 586.059 4647.71 571.359 4650.97 557.469 4656.91 544.379 4659 540.23 4659.15 536 4657.36 531.691 4655.58 527.379 4652.3 525.379 4647.56 525.672 4642.8 525.672 4638.57 527.91 4634.85 532.359 4631.14 536.82 4627.87 542.609 4625.05 549.738 4622.23 556.871 4619.93 564.891 4618.14 573.801 4616.36 582.719 4614.95 591.781 4613.91 601 4612.86 610.195 4612.28 619.113 4612.13 627.742 4611.98 636.355 4612.05 643.922 4612.35 650.465 4613.24 665.91 4614.57 680.918 4616.36 695.477 4611.3 686.273 4605.28 675.723 4598.3 663.836 4591.32 651.949 4583.44 640.813 4574.69 630.414 4565.91 620.012 4556.41 611.246 4546.16 604.121 4535.91 596.988 4524.99 593.422 4513.4 593.422 4510.13 593.422 4506.8 593.719 4503.37 594.301 4499.95 594.898 4496.47 595.941 4492.9 597.422 4481.61 602.18 4473 608.711 4467.05 617.039 4461.11 625.355 4457.33 634.797 4455.69 645.348 4454.06 655.883 4454.06 666.957 4455.69 678.547 4457.33 690.133 4459.92 701.57 4463.48 712.871 4467.05 724.156 4471.36 734.766 4476.42 744.734 4481.46 754.684 4486.37 763.223 4491.13 770.352" fill="#FFD736"/>
<path transform="matrix(.1,0,0,-.1,0,160.65)" d="M4750.29 718.215C4752.96 715.828 4756.82 714.641 4761.88 714.641 4768.71 714.641 4776.36 716.652 4784.83 720.66 4793.29 724.668 4801.32 729.875 4808.9 736.27 4816.47 742.648 4822.86 749.699 4828.07 757.43 4833.26 765.16 4835.86 772.738 4835.86 780.168 4834.37 780.453 4832.13 780.602 4829.18 780.602 4821.15 780.602 4813.13 778.668 4805.1 774.809 4797.09 770.953 4789.51 766.047 4782.38 760.102 4775.25 754.156 4768.71 747.629 4762.77 740.5 4756.82 733.371 4752.06 726.379 4748.51 719.551 4749.09 719.25 4749.69 718.797 4750.29 718.215ZM4705.72 720C4709.29 731.586 4714.63 743.172 4721.76 754.758 4728.89 766.344 4737.36 776.672 4747.17 785.734 4756.97 794.801 4767.9 802.141 4779.92 807.801 4791.96 813.441 4804.37 816.262 4817.14 816.262 4826.06 816.262 4834.3 814.477 4841.88 810.922 4849.45 807.348 4855.76 802.441 4860.82 796.211 4865.87 789.969 4869.21 782.688 4870.84 774.375 4872.48 766.047 4871.67 757.129 4868.39 747.629 4865.42 739 4860.74 730.609 4854.36 722.445 4847.97 714.266 4840.46 706.988 4831.85 700.609 4823.22 694.215 4813.87 689.082 4803.77 685.223 4793.67 681.367 4783.72 679.43 4773.9 679.43 4760.24 679.43 4748.21 683.289 4737.81 691.02 4736.32 685.375 4735.28 679.656 4734.68 673.863 4734.08 668.07 4734.08 662.352 4734.68 656.707 4735.59 650.164 4737.36 644.672 4740.04 640.215 4742.71 635.758 4746.2 632.262 4750.5 629.738 4754.81 627.219 4759.57 625.43 4764.78 624.395 4769.97 623.344 4775.39 622.832 4781.05 622.832 4799.16 622.832 4816.99 625.805 4834.52 631.75 4852.05 637.691 4868.39 645.781 4883.55 656.031 4898.7 666.285 4912.37 678.395 4924.56 692.367 4936.73 706.324 4946.54 721.336 4953.97 737.379 4956.04 741.836 4957.98 744.059 4959.77 744.059 4960.95 744.059 4961.99 743.172 4962.89 741.387 4963.77 739.602 4964.43 737.23 4964.88 734.258 4965.33 731.285 4965.41 728.164 4965.11 724.891 4964.81 721.621 4964.22 718.363 4963.32 715.09 4957.38 696.961 4948.62 680.031 4937.03 664.289 4925.44 648.527 4911.92 634.871 4896.48 623.285 4881.02 611.699 4864.24 602.621 4846.11 596.09 4827.98 589.559 4809.26 586.289 4789.95 586.289 4774.8 586.59 4760.32 590.012 4746.5 596.539 4732.69 603.07 4721.46 613.035 4712.85 626.406 4704.23 640.363 4699.77 655.598 4699.47 672.078 4699.19 688.57 4701.26 704.539 4705.72 720" fill="#FFD736"/>
<path transform="matrix(.1,0,0,-.1,0,160.65)" d="M5091.45 790.418 5091.9 790.855C5091.6 790.855 5091.45 790.703 5091.45 790.418ZM4970.23 810.922C4971.42 815.379 4974.09 817.598 4978.26 817.598 4980.93 817.598 4983.89 816.563 4987.16 814.477 4990.43 812.406 4993.4 809.797 4996.07 806.688 4998.76 803.566 5000.83 800.219 5002.32 796.648 5003.8 793.09 5004.1 789.668 5003.22 786.395 5000.83 778.668 4998.67 770.879 4996.75 762.996 4994.81 755.133 4992.67 747.328 4990.28 739.602 4994.14 745.543 4999.57 753.422 5006.55 763.223 5013.53 773.039 5021.11 782.688 5029.29 792.191 5037.45 801.703 5045.99 809.945 5054.91 816.938 5063.82 823.902 5072.14 827.398 5079.87 827.398 5087.3 827.398 5094.27 823.992 5100.82 817.148 5105.56 812.406 5108.98 806.688 5111.07 799.992 5113.14 793.316 5114.48 786.32 5115.08 779.043 5115.68 771.762 5115.75 764.41 5115.3 756.98 5114.85 749.551 5114.19 742.422 5113.29 735.594 5116.26 739.164 5119.76 742.945 5123.77 746.953 5127.79 750.977 5132.02 754.535 5136.48 757.656 5140.94 760.777 5145.6 763.371 5150.51 765.461 5155.42 767.531 5160.39 768.582 5165.44 768.582 5175.85 768.582 5184.54 764.035 5191.51 754.984 5198.49 745.918 5203.03 734.406 5205.11 720.434 5206.6 711.52 5207.78 702.094 5208.67 692.145 5209.57 682.18 5212.24 673.039 5216.7 664.723 5219.67 659.379 5223.45 655.656 5228.06 653.586 5232.67 651.5 5237.65 650.465 5242.99 650.465 5254.28 650.465 5266.09 653.738 5278.43 660.266 5290.75 666.809 5302.64 674.898 5314.07 684.563 5325.51 694.215 5336.14 704.316 5345.95 714.867 5355.75 725.418 5363.92 734.707 5370.46 742.723 5372.83 745.992 5375.2 747.629 5377.59 747.629 5379.08 747.629 5380.19 746.805 5380.94 745.184 5381.67 743.531 5382.05 741.387 5382.05 738.715 5382.05 736.043 5381.67 733.07 5380.94 729.801 5380.19 726.527 5378.93 723.406 5377.14 720.434 5371.8 710.633 5364.29 699.723 5354.64 687.688 5344.98 675.648 5334.07 664.348 5321.88 653.813 5309.69 643.262 5296.92 634.348 5283.55 627.066 5270.17 619.789 5256.95 616.156 5243.88 616.156 5231.11 616.156 5220.41 619.41 5211.79 625.957 5203.18 632.484 5196.05 640.813 5190.4 650.914 5184.76 661.016 5180.51 671.926 5177.71 683.664 5174.87 695.398 5172.86 706.324 5171.69 716.426 5171.39 717.914 5171.01 719.836 5170.56 722.219 5170.13 724.594 5169.6 726.977 5169 729.348 5160.99 724.891 5153.48 718.871 5146.5 711.309 5139.51 703.73 5133.13 695.625 5127.34 687.012 5121.54 678.395 5116.26 669.406 5111.52 660.055 5106.76 650.691 5102.45 642 5098.58 633.969 5096.51 629.512 5093.24 627.293 5088.78 627.293 5086.11 627.293 5083.21 628.176 5080.09 629.965 5076.97 631.75 5074.15 634.047 5071.63 636.867 5069.09 639.688 5067.17 642.734 5065.83 646.008 5064.5 649.277 5063.97 652.25 5064.27 654.922 5067.24 670.664 5069.84 686.41 5072.08 702.168 5074.3 717.914 5076.14 733.809 5077.65 749.852 5077.93 754.91 5078.23 759.879 5078.53 764.785 5078.83 769.691 5078.98 774.66 5078.98 779.719V781.938C5077.19 780.453 5075.41 778.969 5073.62 777.48 5071.85 775.996 5070.22 774.512 5068.73 773.039 5056.54 760.254 5045.03 746.652 5034.18 732.246 5023.33 717.84 5013.08 702.902 5003.43 687.461 4993.78 672.004 4984.56 656.406 4975.8 640.664 4967.03 624.906 4958.34 609.461 4949.73 594.301 4947.36 589.852 4944.08 587.621 4939.93 587.621 4936.96 587.621 4933.91 588.672 4930.79 590.75 4927.67 592.828 4924.92 595.43 4922.55 598.551 4920.16 601.66 4918.39 605.078 4917.19 608.801 4916 612.508 4915.85 615.855 4916.74 618.828 4925.65 651.199 4934.57 683.289 4943.48 715.09 4952.4 746.879 4961.31 778.832 4970.23 810.922" fill="#FFD736"/>
<path transform="matrix(.1,0,0,-.1,0,160.65)" d="M5292.1 323.781C5293.58 322.289 5295.65 321.18 5298.32 320.43 5301 319.691 5303.83 319.32 5306.8 319.32 5318.39 319.32 5329.45 321.328 5340 325.34 5350.55 329.34 5360.43 334.629 5369.64 341.16 5378.84 347.699 5387.38 355.129 5395.26 363.441 5403.13 371.762 5410.35 380.371 5416.88 389.289 5442.14 423.16 5462.64 460.379 5478.38 500.941 5494.14 541.488 5506.76 582.578 5516.28 624.172 5504.98 615.855 5492.13 605.738 5477.72 593.871 5463.3 581.98 5448.45 568.828 5433.14 554.43 5417.84 540.02 5402.54 524.711 5387.25 508.512 5371.94 492.32 5357.83 475.98 5344.91 459.48 5331.97 443 5320.84 426.66 5311.47 410.461 5302.12 394.27 5295.65 378.898 5292.1 364.328 5291.5 361.66 5290.74 358.48 5289.86 354.75 5288.97 351.051 5288.37 347.172 5288.07 343.172 5287.79 339.141 5287.85 335.441 5288.3 332.02 5288.75 328.609 5290.01 325.859 5292.1 323.781ZM5315.7 487.789C5344.54 523.75 5376.92 556.57 5412.87 586.289 5448.81 615.988 5486.41 643.035 5525.63 667.41 5527.11 676.023 5528.6 684.926 5530.08 694.141 5531.57 703.355 5532.91 712.57 5534.09 721.77 5528.15 714.641 5522.36 707.512 5516.71 700.383 5511.07 693.254 5505.28 686.273 5499.33 679.43 5493.99 673.203 5487.82 666.285 5480.84 658.703 5473.85 651.141 5466.36 644.145 5458.33 637.77 5450.31 631.375 5441.84 626.016 5432.92 621.723 5424.02 617.414 5415.1 615.254 5406.19 615.254 5394.3 615.254 5383.02 619.563 5372.32 628.176 5363.7 635.305 5357.83 643.563 5354.71 652.91 5351.59 662.277 5350.33 672.227 5350.91 682.777 5351.51 693.328 5353.53 704.238 5356.93 715.543 5360.35 726.828 5364.45 737.828 5369.19 748.516 5373.94 759.215 5378.84 769.316 5383.9 778.832 5388.95 788.332 5393.27 796.648 5396.82 803.789 5398.9 807.949 5402.17 810.02 5406.63 810.02 5409.9 810.02 5413.17 808.984 5416.44 806.898 5419.7 804.828 5422.59 802.23 5425.13 799.109 5427.65 795.988 5429.44 792.641 5430.47 789.082 5431.51 785.512 5431.28 782.09 5429.81 778.832 5423.85 767.531 5418.14 756.02 5412.64 744.281 5407.15 732.547 5402.17 720.434 5397.72 707.961 5396.82 705.574 5395.41 701.945 5393.48 697.035 5391.54 692.145 5389.85 686.934 5388.36 681.441 5386.87 675.934 5385.82 670.59 5385.24 665.398 5384.64 660.191 5385.39 656.258 5387.46 653.586 5387.46 653.871 5388.51 653.813 5390.58 653.359 5392.67 652.91 5394.89 652.699 5397.28 652.699H5399.06C5404.1 653.586 5409.22 655.434 5414.43 658.27 5419.62 661.09 5424.68 664.422 5429.59 668.297 5434.48 672.152 5439.09 676.234 5443.4 680.559 5447.7 684.848 5451.5 688.797 5454.77 692.367 5466.06 704.539 5476.67 717.16 5486.64 730.25 5496.59 743.32 5506.91 756.094 5517.61 768.582 5521.77 773.039 5525.93 776.895 5530.08 780.168 5534.24 783.426 5538.85 785.063 5543.91 785.063 5546.58 785.063 5549.4 784.324 5552.37 782.84 5555.34 781.355 5558.32 778.969 5561.29 775.711 5565.74 770.953 5568.72 765.234 5570.2 758.539 5571.69 751.863 5572.42 744.883 5572.42 737.605 5572.42 730.309 5571.91 723.121 5570.86 715.977 5569.83 708.848 5569.02 702.32 5568.42 696.375 5568.42 695.773 5568.34 695.102 5568.19 694.363 5568.04 693.629 5567.97 692.953 5567.97 692.367 5586.1 702.754 5604.59 712.195 5623.47 720.66 5642.33 729.125 5661.71 736.477 5681.63 742.723 5684 743.32 5685.78 743.621 5686.97 743.621 5690.83 743.621 5694.25 742.57 5697.22 740.5 5700.19 738.414 5702.2 735.969 5703.24 733.145 5704.27 730.309 5704.27 727.578 5703.24 724.891 5702.2 722.219 5699.46 720.133 5695 718.664 5672.71 711.82 5650.42 702.98 5628.14 692.145 5605.86 681.293 5583.71 668.879 5561.74 654.922 5558.47 638.277 5554.82 621.785 5550.81 605.449 5546.8 589.109 5542.41 572.922 5537.66 556.871 5531.12 534 5523.41 510.078 5514.49 485.121 5505.58 460.16 5494.95 435.949 5482.63 412.461 5470.29 389 5455.81 367.391 5439.16 347.621 5422.52 327.859 5403.22 311.891 5381.23 299.699 5372.6 294.961 5363.33 291.16 5353.37 288.34 5343.42 285.52 5333.4 284.109 5323.28 284.109 5315.87 284.109 5308.57 284.988 5301.45 286.781 5294.32 288.57 5287.79 291.391 5281.84 295.238 5275.9 299.121 5270.69 304.16 5266.24 310.398 5261.78 316.648 5258.37 324.078 5255.98 332.691 5252.43 346.359 5251.98 360.25 5254.65 374.352 5257.32 388.48 5261.78 402.211 5268.02 415.578 5274.27 428.949 5281.69 441.82 5290.31 454.141 5298.92 466.48 5307.39 477.691 5315.7 487.789" fill="#FFD736"/>
<use data-text="D" xlink:href="#font_1_1" transform="matrix(101,0,0,-101,35.9391,116.705898)" fill="#FFD736"/>
<use data-text="I" xlink:href="#font_1_2" transform="matrix(101,0,0,-101,110.703289,116.705898)" fill="#FFD736"/>
<use data-text="V" xlink:href="#font_1_3" transform="matrix(101,0,0,-101,142.31459,116.705898)" fill="#FFD736"/>
<use data-text="D" xlink:href="#font_1_1" transform="matrix(101,0,0,-101,211.80088,116.705898)" fill="#FFD736"/>
<path transform="matrix(.1,0,0,-.1,0,160.65)" stroke-width="10" stroke-linecap="butt" stroke-miterlimit="10" stroke-linejoin="miter" fill="none" stroke="#FFD736" d="M460.359 1141.14C446.219 1127 439.156 1103.79 439.156 1072.49V542.426C439.156 519.207 441.172 500.02 445.203 485.879 449.25 470.738 458.328 459.629 471.469 451.551 485.594 443.473 504.781 439.441 532.047 439.441H722.859C756.188 439.441 785.453 441.457 812.719 445.504 838.969 450.551 863.203 457.613 886.422 467.707 909.641 478.816 930.844 491.941 950.031 510.113 974.266 532.332 994.453 558.582 1010.61 586.848 1026.77 616.129 1037.88 648.441 1045.95 683.77 1053.02 720.129 1057.05 759.504 1057.05 802.91 1057.05 934.16 1019.7 1032.1 943.969 1096.72 915.703 1121.96 883.391 1139.13 847.047 1148.21 811.703 1157.3 769.313 1162.35 719.828 1162.35H529.016C497.719 1162.35 474.484 1155.29 460.359 1141.14ZM682.469 1046.24C726.906 1046.24 765.266 1041.19 796.563 1032.1 827.859 1022 855.125 999.801 876.328 963.441 897.531 928.113 908.641 874.598 908.641 803.926 908.641 701.941 884.406 631.27 834.938 589.879 823.828 579.785 811.703 572.707 796.563 567.66 781.422 562.613 767.281 558.582 754.156 557.566 740.031 556.566 720.844 555.551 696.609 555.551H585.547V1046.24H682.469ZM1212.03 449.535C1226.17 434.395 1243.33 427.332 1264.53 427.332 1286.75 427.332 1303.91 434.395 1318.05 449.535 1331.17 464.676 1338.23 486.895 1338.23 516.176V1085.61C1338.23 1115.89 1331.17 1138.11 1318.05 1152.25 1303.91 1167.39 1286.75 1174.46 1264.53 1174.46 1243.33 1174.46 1225.16 1167.39 1212.03 1152.25 1198.91 1137.1 1191.84 1114.89 1191.84 1085.61V516.176C1191.84 486.895 1198.91 464.676 1212.03 449.535ZM1577.61 1151.24C1566.52 1166.38 1549.34 1174.46 1524.11 1174.46 1503.91 1174.46 1486.75 1167.39 1473.63 1154.27 1460.5 1140.13 1453.44 1124.99 1453.44 1107.83 1453.44 1101.77 1454.44 1093.69 1456.45 1083.6 1458.48 1074.5 1461.5 1065.43 1464.53 1057.35 1467.56 1049.27 1470.59 1040.18 1473.63 1032.1L1645.27 563.629C1651.31 545.457 1658.39 528.285 1664.45 512.129 1670.5 496.988 1677.58 481.848 1686.66 469.738 1694.73 456.598 1705.84 446.504 1718.97 438.426 1733.09 431.363 1749.25 427.332 1769.45 427.332 1788.63 427.332 1805.8 431.363 1818.92 439.441 1833.06 447.52 1844.16 457.613 1852.23 469.738 1860.31 481.848 1867.39 495.988 1873.44 512.129 1879.5 528.285 1886.56 545.457 1892.63 563.629L2067.3 1036.14C2070.33 1044.22 2073.34 1053.3 2076.38 1060.38 2079.41 1068.44 2081.42 1077.54 2083.45 1085.61 2085.47 1093.69 2086.47 1101.77 2086.47 1108.83 2086.47 1118.93 2083.45 1130.04 2077.39 1140.13 2071.33 1150.22 2063.25 1159.32 2052.14 1165.38 2042.05 1171.43 2029.94 1174.46 2017.83 1174.46 2000.66 1174.46 1986.52 1170.43 1977.44 1162.35 1967.34 1154.27 1960.27 1145.18 1956.23 1135.08 1951.19 1124.99 1945.13 1107.83 1937.05 1081.58L1772.48 593.91 1608.92 1078.55C1597.81 1111.86 1587.72 1136.1 1577.61 1151.24ZM2218.98 1141.14C2204.84 1127 2197.78 1103.79 2197.78 1072.49V542.426C2197.78 519.207 2199.79 500.02 2203.82 485.879 2207.87 470.738 2216.95 459.629 2230.09 451.551 2244.21 443.473 2263.4 439.441 2290.67 439.441H2481.48C2514.81 439.441 2544.07 441.457 2571.34 445.504 2597.59 450.551 2621.82 457.613 2645.04 467.707 2668.26 478.816 2689.46 491.941 2708.65 510.113 2732.89 532.332 2753.07 558.582 2769.23 586.848 2785.39 616.129 2796.5 648.441 2804.57 683.77 2811.64 720.129 2815.67 759.504 2815.67 802.91 2815.67 934.16 2778.32 1032.1 2702.59 1096.72 2674.32 1121.96 2642.01 1139.13 2605.67 1148.21 2570.32 1157.3 2527.93 1162.35 2478.45 1162.35H2287.64C2256.34 1162.35 2233.11 1155.29 2218.98 1141.14ZM2441.09 1046.24C2485.53 1046.24 2523.89 1041.19 2555.18 1032.1 2586.48 1022 2613.75 999.801 2634.95 963.441 2656.15 928.113 2667.26 874.598 2667.26 803.926 2667.26 701.941 2643.03 631.27 2593.56 589.879 2582.45 579.785 2570.32 572.707 2555.18 567.66 2540.04 562.613 2525.9 558.582 2512.78 557.566 2498.65 556.566 2479.46 555.551 2455.23 555.551H2344.17V1046.24H2441.09ZM2865.41 439.441"/>
</svg>
